0
SECTION
2
HEADER
0
ENDSEC
0
SECTION
2
TABLES
0
TABLE
2
LTYPE
0
LTYPE
72
65
70
64
2
CONTINUOUS
3
______
73
0
40
0
0
ENDTAB
0
TABLE
2
LAYER
0
LAYER
2
colorname
70
0
62
0
6
CONTINUOUS
0
ENDTAB
0
ENDSEC
0
SECTION
2
ENTITIES
0
LINE
8
colorname
10
31.8867188
20
38.2148438
11
31.8867188
21
32.0976563
0
LINE
8
colorname
10
19.0898438
20
23.0273438
11
21.3046875
21
22.5351563
0
LINE
8
colorname
10
3.9023438
20
1.4414063
11
3.9023438
21
8.1210938
0
LINE
8
colorname
10
17.7890625
20
17.1210938
11
15.5390625
21
17.6484375
0
ARC
8
colorname
10
20.3276394
20
9.6315017
40
25.2653996
50
62.7736899
51
76.5800357
0
ARC
8
colorname
10
20.1477548
20
8.5885911
40
26.3216678
50
76.7260372
51
90.16007
0
ARC
8
colorname
10
19.9858834
20
9.5986554
40
25.311655
50
89.8000426
51
95.509974
0
ARC
8
colorname
10
19.0364121
20
19.0979427
40
15.7651263
50
95.3901429
51
103.8341952
0
ARC
8
colorname
10
17.4419139
20
25.4226866
40
9.2426567
50
103.6115487
51
117.0442239
0
ARC
8
colorname
10
16.3452216
20
27.72449
40
6.694264
50
117.6416838
51
121.47861
0
ARC
8
colorname
10
15.3996858
20
29.1209913
40
5.0101328
50
120.5961655
51
147.3264116
0
ARC
8
colorname
10
15.4125675
20
29.2389451
40
4.9584367
50
148.5541658
51
175.7986609
0
ARC
8
colorname
10
17.1550361
20
29.0113243
40
6.7136338
50
174.9507251
51
180.0633073
0
ARC
8
colorname
10
15.1436424
20
28.9463817
40
4.702588
50
179.2991107
51
199.9404062
0
ARC
8
colorname
10
14.5607801
20
28.8064693
40
4.1075041
50
200.8786126
51
234.3030995
0
ARC
8
colorname
10
16.0725588
20
30.8875846
40
6.6797416
50
234.1880467
51
244.9369696
0
ARC
8
colorname
10
19.5009551
20
38.0099131
40
14.5840366
50
244.5894337
51
250.5698638
0
ARC
8
colorname
10
23.8839459
20
50.2861943
40
27.6192347
50
250.4670176
51
254.4944786
0
ARC
8
colorname
10
29.2769343
20
69.5305643
40
47.6049428
50
254.4317875
51
257.2092271
0
ARC
8
colorname
10
32.7291294
20
84.206588
40
62.6811777
50
257.1019295
51
257.4320214
0
ARC
8
colorname
10
13.2156629
20
-15.8529955
40
39.2311421
50
72.725985
51
78.1008971
0
ARC
8
colorname
10
17.7617664
20
-1.3767693
40
24.0579671
50
65.0936144
51
72.8270993
0
ARC
8
colorname
10
22.118215
20
7.8819395
40
13.8257819
50
53.052649
51
65.3095334
0
ARC
8
colorname
10
24.6572186
20
11.4064596
40
9.4833017
50
47.2400249
51
52.5126284
0
ARC
8
colorname
10
25.0872201
20
11.9459224
40
8.7954307
50
11.2765628
51
46.9107412
0
ARC
8
colorname
10
20.8650573
20
10.9517669
40
13.1313347
50
359.6139086
51
11.928191
0
ARC
8
colorname
10
22.88933
20
10.7176187
40
11.1077189
50
338.0860047
51
0.7513774
0
ARC
8
colorname
10
23.7358831
20
10.5832633
40
10.2739711
50
306.489722
51
337.0191127
0
ARC
8
colorname
10
21.941557
20
12.6478702
40
13.0026614
50
306.3820178
51
307.436253
0
ARC
8
colorname
10
20.8691495
20
14.35607
40
15.0147629
50
285.6324295
51
305.8101001
0
ARC
8
colorname
10
18.6401522
20
21.9372341
40
22.9163725
50
274.410827
51
285.8916754
0
ARC
8
colorname
10
17.7705763
20
31.0152975
40
32.0348706
50
269.9073063
51
274.712788
0
ARC
8
colorname
10
17.80411
20
34.9711963
40
35.9908288
50
262.0469168
51
269.8641105
0
ARC
8
colorname
10
18.5089636
20
40.6610239
40
41.7235504
50
259.8091997
51
262.1693849
0
ARC
8
colorname
10
20.2352243
20
49.7816287
40
51.0057617
50
254.6090384
51
259.7133259
0
ARC
8
colorname
10
23.2373262
20
60.9844392
40
62.6036287
50
252.0102028
51
254.6811872
0
ARC
8
colorname
10
21.1082504
20
41.0150315
40
37.1221547
50
242.3871816
51
250.2490348
0
ARC
8
colorname
10
19.0894619
20
35.578425
40
31.3232306
50
250.3639391
51
254.9741243
0
ARC
8
colorname
10
17.9652765
20
31.0840525
40
26.6911933
50
254.8035936
51
268.856967
0
ARC
8
colorname
10
17.8595241
20
29.4110739
40
25.0165427
50
269.0226903
51
269.9996585
0
ARC
8
colorname
10
17.9526127
20
25.8542431
40
21.4599144
50
269.751064
51
276.8026591
0
ARC
8
colorname
10
18.9249598
20
17.9558727
40
13.5020072
50
276.6756112
51
287.0077882
0
ARC
8
colorname
10
20.412893
20
13.1505579
40
8.4716476
50
286.8908133
51
301.9078764
0
ARC
8
colorname
10
21.9508463
20
10.7211903
40
5.5965082
50
301.6876348
51
322.8933817
0
ARC
8
colorname
10
22.4761499
20
10.211644
40
4.8709831
50
323.9456668
51
358.6803212
0
ARC
8
colorname
10
20.9689765
20
10.369659
40
6.3825862
50
357.5737448
51
0.0128797
0
ARC
8
colorname
10
21.0914847
20
10.4303153
40
6.260358
50
359.4579869
51
14.8846777
0
ARC
8
colorname
10
22.8223714
20
10.8955289
40
4.4680528
50
14.8207802
51
51.9512862
0
ARC
8
colorname
10
21.7561708
20
9.3934776
40
6.3086196
50
52.7336643
51
64.8751408
0
ARC
8
colorname
10
17.9300496
20
1.51635
40
15.065466
50
64.4204963
51
70.8481952
0
ARC
8
colorname
10
13.0482304
20
-12.2862631
40
29.7058472
50
70.6873924
51
74.619243
0
ARC
8
colorname
10
7.2536819
20
-33.1167125
40
51.3271834
50
74.549915
51
77.182121
0
ARC
8
colorname
10
2.9236105
20
-51.631785
40
70.3415951
50
77.0888188
51
77.7995594
0
ARC
8
colorname
10
21.6126215
20
47.086949
40
30.0585109
50
251.8795644
51
258.3426759
0
ARC
8
colorname
10
18.0834464
20
36.4091707
40
18.8126998
50
242.8246627
51
251.9806519
0
ARC
8
colorname
10
14.607768
20
29.7469697
40
11.2986317
50
228.0729236
51
243.0745714
0
ARC
8
colorname
10
12.9158583
20
27.7170645
40
8.658433
50
225.5777547
51
227.4272112
0
ARC
8
colorname
10
12.9504954
20
27.6837975
40
8.6590509
50
191.2466961
51
225.2599929
0
ARC
8
colorname
10
17.0418119
20
28.6373183
40
12.8585013
50
179.6197427
51
191.8583425
0
ARC
8
colorname
10
16.717766
20
28.8517841
40
12.5348374
50
163.6129235
51
180.590244
0
ARC
8
colorname
10
13.8752597
20
29.6314033
40
9.5880022
50
126.880092
51
163.290271
0
ARC
8
colorname
10
15.9979183
20
26.8158703
40
13.1140276
50
106.8392674
51
126.9158297
0
ARC
8
colorname
10
18.1968579
20
19.8559579
40
20.4127052
50
95.3947104
51
107.0875352
0
ARC
8
colorname
10
19.2265184
20
10.4855786
40
29.8387327
50
89.8574017
51
95.671468
0
ARC
8
colorname
10
19.3887709
20
-3.074172
40
43.39848
50
83.9949604
51
90.1161662
0
ARC
8
colorname
10
20.0266611
20
3.538535
40
36.7553702
50
80.5667952
51
83.9054756
0
ARC
8
colorname
10
21.1253802
20
9.7744123
40
30.4238039
50
73.0566952
51
80.6832098
0
ARC
8
colorname
10
22.4155162
20
14.1748649
40
25.838426
50
68.4966927
51
72.9496642
0
LINE
8
colorname
10
70.2070313
20
33.3984375
11
70.2070313
21
54.703125
0
LINE
8
colorname
10
70.2070313
20
54.703125
11
76.6757813
21
54.703125
0
LINE
8
colorname
10
76.6757813
20
54.703125
11
76.6757813
21
0
0
LINE
8
colorname
10
76.6757813
20
0
11
70.2070313
21
0
0
LINE
8
colorname
10
70.2070313
20
0
11
70.2070313
21
5.90625
0
ARC
8
colorname
10
57.0229259
20
13.4355978
40
15.1826121
50
315.8677203
51
330.2696229
0
ARC
8
colorname
10
59.1467789
20
11.4257624
40
12.2588213
50
298.8220278
51
315.6978349
0
ARC
8
colorname
10
58.6684239
20
12.5329057
40
13.4599118
50
280.157036
51
298.3339989
0
ARC
8
colorname
10
57.6825811
20
17.7117858
40
18.7315663
50
269.704387
51
280.3317371
0
ARC
8
colorname
10
57.2660256
20
12.9400614
40
13.9632579
50
222.5476428
51
271.3128174
0
ARC
8
colorname
10
59.8169705
20
15.5565115
40
17.612995
50
218.1532642
51
223.2067952
0
ARC
8
colorname
10
61.7736076
20
16.9140618
40
19.9907673
50
193.5875262
51
217.7485044
0
ARC
8
colorname
10
70.6654867
20
19.2039763
40
29.1720737
50
181.3358566
51
193.8563113
0
ARC
8
colorname
10
78.5783739
20
19.6457057
40
37.0939996
50
179.9897467
51
181.7330352
0
ARC
8
colorname
10
72.7748364
20
19.8611292
40
31.291158
50
168.7144319
51
180.3823001
0
ARC
8
colorname
10
62.9072441
20
21.9138832
40
21.2128017
50
148.5447453
51
168.9358676
0
ARC
8
colorname
10
60.4451052
20
23.2373743
40
18.4224975
50
141.8043339
51
148.0601151
0
ARC
8
colorname
10
57.9681555
20
25.4326865
40
15.1196252
50
119.2778334
51
142.5383216
0
ARC
8
colorname
10
57.345442
20
26.0133196
40
14.3109758
50
89.5246685
51
118.2399912
0
ARC
8
colorname
10
57.5858705
20
22.5125404
40
17.8116783
50
89.9997846
51
90.3914969
0
ARC
8
colorname
10
57.6876016
20
21.6784455
40
18.6460504
50
79.3558305
51
90.3123961
0
ARC
8
colorname
10
58.6846021
20
26.8107954
40
13.4178945
50
61.6477407
51
79.4918498
0
ARC
8
colorname
10
58.9098072
20
27.5458199
40
12.6649908
50
37.3688572
51
60.9652141
0
ARC
8
colorname
10
56.1233219
20
25.2716429
40
16.2602479
50
29.9864547
51
37.7781339
0
ARC
8
colorname
10
76.2391767
20
19.5035243
40
28.0755086
50
179.6962916
51
188.6106755
0
ARC
8
colorname
10
66.4735976
20
17.9718003
40
18.1907485
50
188.4457532
51
202.1679065
0
ARC
8
colorname
10
61.7956595
20
16.125304
40
13.1619851
50
202.4076877
51
215.6446197
0
ARC
8
colorname
10
59.0186609
20
13.9980404
40
9.6662199
50
214.9902051
51
242.2744054
0
ARC
8
colorname
10
58.9232895
20
14.2289177
40
9.8280914
50
243.3928309
51
268.6061873
0
ARC
8
colorname
10
59.1655628
20
16.9858747
40
12.5913438
50
267.8091994
51
270.0109482
0
ARC
8
colorname
10
59.303682
20
14.7712659
40
10.3776221
50
269.2506938
51
291.5222455
0
ARC
8
colorname
10
59.4743984
20
13.8599553
40
9.4688499
50
292.5843273
51
323.9804884
0
ARC
8
colorname
10
57.5480509
20
15.5134015
40
12.0009816
50
323.0039826
51
323.974482
0
ARC
8
colorname
10
55.8205211
20
16.5968333
40
14.0360419
50
324.5451935
51
344.1637629
0
ARC
8
colorname
10
48.7842342
20
18.6944999
40
21.3779247
50
343.9013031
51
355.0625687
0
ARC
8
colorname
10
39.9968919
20
19.5917789
40
30.2102002
50
354.80152
51
0.1148656
0
ARC
8
colorname
10
42.2958153
20
19.801066
40
27.9116121
50
359.6947078
51
8.6618267
0
ARC
8
colorname
10
51.981768
20
21.3290076
40
18.1060959
50
8.4979435
51
22.2903609
0
ARC
8
colorname
10
56.5983072
20
23.1615175
40
13.1395794
50
22.5322968
51
35.8107214
0
ARC
8
colorname
10
59.2857341
20
25.2334991
40
9.7484594
50
35.1768661
51
61.8713755
0
ARC
8
colorname
10
59.4152207
20
25.0721226
40
9.8315707
50
62.9803135
51
88.5785083
0
ARC
8
colorname
10
59.1704227
20
22.3211876
40
12.5889691
50
87.775275
51
90.0111684
0
ARC
8
colorname
10
59.0328969
20
24.5408737
40
10.3701623
50
89.2536985
51
111.3285075
0
ARC
8
colorname
10
58.8438427
20
25.5028235
40
9.4069392
50
112.3869623
51
144.2033767
0
ARC
8
colorname
10
60.7715778
20
23.8577614
40
11.934526
50
143.2107252
51
144.1369036
0
ARC
8
colorname
10
62.5862964
20
22.7209875
40
14.0719036
50
144.7146409
51
164.2607417
0
ARC
8
colorname
10
69.7012043
20
20.6116482
40
21.4924592
50
163.9934567
51
175.0928535
0
ARC
8
colorname
10
78.5538074
20
19.7129321
40
30.3898055
50
174.8323715
51
180.114231
0
LINE
8
colorname
10
103.8164063
20
54.703125
11
109.9335938
21
54.703125
0
LINE
8
colorname
10
109.9335938
20
54.703125
11
109.9335938
21
49.3242188
0
LINE
8
colorname
10
109.9335938
20
49.3242188
11
103.7460938
21
49.3242188
0
LINE
8
colorname
10
97.5585938
20
42.8554688
11
97.5585938
21
39.375
0
LINE
8
colorname
10
97.5585938
20
39.375
11
108.2109375
21
39.375
0
LINE
8
colorname
10
108.2109375
20
39.375
11
108.2109375
21
34.3476563
0
LINE
8
colorname
10
108.2109375
20
34.3476563
11
97.5585938
21
34.3476563
0
LINE
8
colorname
10
97.5585938
20
34.3476563
11
97.5585938
21
0
0
LINE
8
colorname
10
97.5585938
20
0
11
91.0546875
21
0
0
LINE
8
colorname
10
91.0546875
20
0
11
91.0546875
21
34.3476563
0
LINE
8
colorname
10
91.0546875
20
34.3476563
11
84.8671875
21
34.3476563
0
LINE
8
colorname
10
84.8671875
20
34.3476563
11
84.8671875
21
39.375
0
LINE
8
colorname
10
84.8671875
20
39.375
11
91.0546875
21
39.375
0
LINE
8
colorname
10
91.0546875
20
39.375
11
91.0546875
21
42.1171875
0
ARC
8
colorname
10
103.6850974
20
35.6989925
40
13.6253628
50
89.7435046
51
96.5163735
0
ARC
8
colorname
10
103.0381727
20
41.1420563
40
8.1440848
50
96.3402981
51
106.8608335
0
ARC
8
colorname
10
101.9856371
20
44.522056
40
4.6041774
50
106.5257441
51
124.5756085
0
ARC
8
colorname
10
101.2528699
20
45.6545341
40
3.2561167
50
125.2676789
51
135.962173
0
ARC
8
colorname
10
101.7297192
20
45.2993246
40
3.8465858
50
137.0960769
51
158.8805274
0
ARC
8
colorname
10
104.6566117
20
44.1080071
40
7.0063597
50
158.4168635
51
170.1554353
0
ARC
8
colorname
10
109.7647077
20
43.1814137
40
12.1977296
50
169.9694792
51
177.6065093
0
ARC
8
colorname
10
115.2379095
20
42.8706974
40
17.6793222
50
177.3411727
51
180.0493535
0
ARC
8
colorname
10
113.4929151
20
42.2443051
40
22.4385877
50
171.572327
51
180.3245899
0
ARC
8
colorname
10
104.9938375
20
43.5519721
40
13.839716
50
158.0138295
51
171.7706919
0
ARC
8
colorname
10
100.3817166
20
45.4424176
40
8.8553037
50
135.062164
51
158.1837556
0
ARC
8
colorname
10
100.4801317
20
45.0510107
40
9.2037758
50
109.526494
51
133.7699909
0
ARC
8
colorname
10
102.5087575
20
39.6344981
40
14.987166
50
97.2334535
51
109.914621
0
ARC
8
colorname
10
103.7073299
20
30.9169556
40
23.7864195
50
89.7372604
51
97.453581
0
ENDSEC
0
EOF